<?xml version="1.0" standalone="no"?>
<!DOCTYPE svg PUBLIC "-//W3C//DTD SVG 20010904//EN"
 "http://www.w3.org/TR/2001/REC-SVG-20010904/DTD/svg10.dtd">
<svg version="1.0" xmlns="http://www.w3.org/2000/svg"
 width="1212.000000pt" height="1280.000000pt" viewBox="0 0 1212.000000 1280.000000"
 preserveAspectRatio="xMidYMid meet">
<metadata>
Created by potrace 1.15, written by Peter Selinger 2001-2017
</metadata>
<g transform="translate(0.000000,1280.000000) scale(0.100000,-0.100000)"
fill="#9c27b0" stroke="none">
<path d="M2417 12790 c-319 -40 -593 -160 -857 -374 -197 -161 -287 -270 -385
-468 -130 -263 -195 -534 -195 -811 0 -194 25 -310 99 -452 29 -56 66 -100
186 -220 154 -155 195 -213 195 -274 0 -25 -13 -46 -65 -101 -87 -93 -108
-141 -109 -250 -1 -75 3 -93 31 -152 55 -117 133 -180 286 -234 27 -9 60 -26
74 -38 l25 -22 -27 -32 c-15 -18 -49 -44 -76 -58 -110 -55 -105 -150 12 -219
159 -93 287 -129 459 -130 111 0 135 3 213 29 48 16 116 47 150 69 79 50 182
156 227 232 31 52 35 67 34 125 0 36 -4 95 -8 132 -8 61 -7 70 17 110 25 44
153 188 166 188 4 0 23 -22 43 -49 l37 -49 -30 -28 c-16 -16 -42 -53 -57 -84
-23 -47 -27 -68 -27 -140 0 -71 4 -94 26 -140 34 -74 76 -120 141 -155 45 -26
64 -30 128 -30 52 0 88 6 117 19 l41 18 93 -70 c186 -140 403 -259 592 -327
43 -15 76 -29 73 -32 -2 -2 -30 -11 -63 -20 -32 -8 -79 -26 -105 -40 l-48 -26
-85 38 c-97 43 -156 53 -211 35 -55 -18 -263 -146 -431 -267 -262 -187 -491
-377 -775 -646 -115 -109 -150 -148 -158 -176 -17 -64 14 -141 76 -190 l25
-20 -27 -42 c-47 -74 -66 -145 -66 -246 0 -153 36 -240 125 -300 114 -76 268
-106 530 -101 l178 3 -6 -25 c-43 -176 -216 -306 -445 -334 -114 -15 -150 -39
-150 -102 0 -33 27 -79 92 -157 l39 -47 -29 -38 c-143 -181 -289 -522 -445
-1039 -111 -367 -111 -364 -9 -449 128 -106 301 -197 512 -270 l95 -33 17
-158 c23 -221 24 -213 -9 -213 -37 -1 -111 -35 -145 -67 l-27 -26 -35 31
c-156 137 -392 235 -635 263 -186 22 -446 -3 -636 -62 -59 -18 -68 -24 -81
-55 -13 -30 -13 -38 1 -63 19 -38 16 -37 131 -62 279 -60 459 -152 607 -308
61 -65 67 -75 67 -115 l0 -43 -120 -31 c-66 -18 -124 -32 -130 -32 -18 0 -11
20 30 87 54 90 54 122 -3 178 -45 46 -119 75 -186 75 -55 0 -153 -26 -227 -60
l-67 -30 6 41 c3 22 18 64 32 94 15 30 25 61 22 69 -8 21 -72 31 -117 17 -29
-9 -41 -19 -49 -43 -15 -43 -14 -103 4 -172 l15 -58 -83 -79 c-98 -91 -155
-170 -172 -235 l-12 -47 -74 -18 c-101 -25 -106 -24 -178 18 -94 56 -179 130
-265 232 -72 85 -80 91 -115 91 -27 0 -44 -7 -61 -25 -22 -23 -23 -30 -17
-115 7 -94 35 -235 61 -308 14 -40 14 -43 -2 -49 -126 -45 -162 -71 -193 -138
-36 -77 -19 -166 47 -246 237 -287 394 -731 394 -1109 0 -88 -10 -131 -84
-381 -87 -296 -102 -404 -71 -524 18 -70 70 -152 118 -189 58 -44 117 -64 292
-96 373 -68 511 -104 873 -231 139 -49 267 -89 284 -89 16 0 159 43 316 95
466 154 784 239 1207 325 133 26 260 57 282 68 50 26 119 101 144 157 10 23
24 77 29 119 17 117 -2 226 -106 616 -31 120 -35 149 -35 254 0 65 3 121 6
124 5 5 105 -20 238 -60 l67 -20 0 -61 c0 -34 -5 -123 -11 -197 -16 -212 -15
-250 6 -293 31 -65 69 -82 275 -122 489 -96 918 -213 1372 -374 49 -17 103
-31 122 -31 19 0 155 38 303 84 760 238 1283 377 1857 496 82 17 164 39 181
50 17 10 41 38 54 61 26 46 28 79 12 279 -4 58 -6 107 -4 109 5 6 193 -34 413
-89 220 -55 468 -129 657 -195 72 -26 145 -45 169 -45 23 0 150 34 295 79 308
97 691 206 928 267 167 43 571 135 656 150 78 13 131 56 145 117 4 19 4 77 0
128 -5 52 -11 140 -15 196 l-6 101 133 32 c73 17 207 47 298 66 172 36 199 48
237 104 44 63 28 113 -90 290 -150 224 -322 395 -547 543 -58 38 -104 71 -103
74 1 2 44 31 95 64 76 49 98 59 118 52 49 -14 95 -6 151 27 70 41 89 71 89
144 0 145 -119 321 -240 357 -37 11 -44 10 -106 -21 -76 -39 -114 -79 -114
-121 0 -26 -8 -33 -97 -79 -54 -27 -119 -61 -145 -76 l-47 -27 -53 23 c-37 16
-80 24 -143 27 l-91 5 54 104 c43 84 57 104 75 104 63 0 153 116 150 193 -4
81 -83 171 -201 229 -49 25 -80 32 -141 36 -75 4 -79 3 -112 -26 -47 -42 -93
-134 -86 -175 3 -18 8 -39 11 -47 4 -9 -21 -58 -60 -120 -36 -58 -73 -119 -81
-136 -14 -28 -21 -32 -85 -42 -88 -13 -163 -50 -220 -107 -32 -33 -49 -44 -62
-39 -12 5 -16 13 -12 28 3 11 15 65 27 118 21 90 25 100 55 117 42 25 60 53
78 124 20 76 12 112 -38 162 -80 80 -240 128 -349 105 -88 -18 -121 -52 -143
-146 l-18 -76 23 -43 c19 -37 21 -49 13 -77 -6 -18 -25 -80 -42 -136 l-31
-104 -28 44 c-48 74 -123 132 -203 157 -29 10 -38 18 -44 44 -3 18 -24 89 -45
160 l-39 127 21 30 c18 24 21 38 16 84 -14 138 -68 185 -210 186 -173 0 -337
-100 -337 -206 0 -15 7 -54 16 -86 16 -55 37 -82 88 -113 11 -7 29 -61 54
-165 l38 -156 -37 -47 c-79 -100 -101 -228 -60 -357 11 -36 21 -70 21 -76 0
-23 -38 -22 -60 1 -59 63 -193 101 -299 84 l-53 -8 -119 112 c-112 105 -119
114 -119 150 0 21 -6 50 -14 66 -22 41 -99 108 -135 116 -69 15 -170 -31 -251
-114 -74 -76 -105 -140 -105 -213 0 -56 1 -59 55 -113 56 -56 104 -79 146 -69
15 4 26 -1 36 -15 8 -12 49 -57 91 -100 42 -44 73 -82 69 -84 -4 -2 -20 -7
-37 -11 -16 -4 -72 -37 -123 -73 -93 -64 -95 -65 -140 -56 -53 9 -48 -1 -87
193 -31 154 -40 177 -77 196 -24 13 -44 14 -121 5 -51 -6 -137 -12 -192 -13
l-100 -3 -3 97 c-3 94 -2 98 25 127 16 17 89 61 170 100 88 44 146 78 154 92
17 33 5 107 -22 135 -47 46 -70 42 -235 -39 -161 -80 -211 -116 -255 -185
l-27 -43 -12 58 c-22 108 -30 132 -57 153 -15 12 -39 24 -54 27 -20 4 -29 14
-38 44 -14 47 -59 79 -109 79 -25 0 -42 9 -66 35 -51 53 -112 44 -171 -27 -74
-90 -309 -328 -315 -321 -9 9 -60 220 -90 368 l-20 100 -97 89 c-142 130 -291
286 -309 325 -9 19 -19 51 -21 72 -10 72 -75 110 -133 79 -16 -9 -29 14 -123
223 -102 224 -174 393 -223 524 l-24 63 40 20 c55 28 64 49 56 139 -3 42 -9
85 -12 97 -5 20 -1 21 283 33 158 7 403 18 543 26 140 8 255 13 256 12 1 -1
-5 -88 -14 -194 l-15 -192 24 -48 c31 -60 118 -121 214 -150 96 -29 136 -35
240 -34 152 1 281 54 318 133 9 18 26 106 38 195 l23 162 43 16 c70 27 123
121 96 170 -7 11 -5 30 5 59 15 40 14 45 -5 84 l-20 41 26 26 c22 22 26 35 28
93 1 37 5 84 8 105 9 45 -14 113 -48 145 -23 21 -23 23 -10 119 21 167 -8 264
-114 374 l-55 58 11 114 c6 62 11 141 11 174 0 58 2 62 33 82 44 27 55 49 67
133 13 90 2 126 -52 173 -58 49 -136 76 -243 82 -161 10 -267 -41 -286 -137
-19 -101 -10 -159 32 -206 20 -21 18 -42 -27 -341 -4 -25 -13 -36 -41 -50 -57
-27 -150 -119 -178 -178 -15 -29 -31 -86 -36 -126 -6 -41 -15 -76 -21 -78 -6
-2 -33 -22 -61 -45 -59 -48 -88 -100 -95 -167 -2 -27 -7 -51 -11 -53 -10 -6
-203 -38 -207 -34 -11 11 215 853 293 1093 l46 140 -31 90 c-41 120 -69 217
-92 323 -18 83 -18 90 -3 149 13 46 14 70 7 90 -16 47 -46 54 -185 43 -167
-13 -371 -12 -561 1 -192 14 -196 13 -222 -85 -17 -63 -20 -67 -84 -111 -60
-41 -68 -44 -77 -29 -23 39 -71 86 -112 111 -24 14 -50 38 -58 53 -8 16 -43
54 -79 86 -98 88 -94 91 137 97 299 8 386 36 519 164 231 224 370 439 464 718
32 97 37 122 38 215 1 94 -2 111 -26 162 -14 31 -60 101 -101 156 -91 119
-158 223 -182 277 -33 77 -16 226 24 209 90 -37 130 -45 220 -45 224 0 444
107 467 226 12 67 -41 110 -116 93 -56 -12 -134 -9 -156 6 -33 25 -24 119 25
261 78 225 100 418 66 580 -57 271 -295 480 -611 535 -115 20 -339 8 -447 -24
-142 -42 -249 -104 -327 -188 l-25 -27 -395 110 c-217 60 -426 114 -465 120
-59 10 -113 9 -196 -4 -11 -1 -36 27 -70 78 -167 250 -453 433 -780 501 -87
18 -374 26 -472 14z m1795 -8917 c3 -175 5 -319 4 -320 -1 -1 -24 4 -51 13
-54 16 -85 13 -109 -12 -14 -13 -21 -13 -67 3 l-51 18 6 40 c5 36 32 390 38
505 l3 45 80 11 c44 6 94 12 111 13 l31 1 5 -317z m-103 -803 c35 -10 68 -25
72 -32 14 -22 10 -35 -12 -41 -15 -4 -30 5 -56 34 -19 21 -41 39 -49 39 -7 0
-16 5 -19 10 -8 13 -11 13 64 -10z"/>
</g>
</svg>
