<?xml version="1.0" standalone="no"?>
<!DOCTYPE svg PUBLIC "-//W3C//DTD SVG 20010904//EN"
 "http://www.w3.org/TR/2001/REC-SVG-20010904/DTD/svg10.dtd">
<svg version="1.0" xmlns="http://www.w3.org/2000/svg"
 width="1269.000000pt" height="1280.000000pt" viewBox="0 0 1269.000000 1280.000000"
 preserveAspectRatio="xMidYMid meet">
<metadata>
Created by potrace 1.15, written by Peter Selinger 2001-2017
</metadata>
<g transform="translate(0.000000,1280.000000) scale(0.100000,-0.100000)"
fill="#9c27b0" stroke="none">
<path d="M4460 12473 l0 -328 -223 -84 c-423 -161 -727 -293 -944 -411 -237
-129 -557 -330 -831 -521 -183 -128 -194 -138 -526 -467 -335 -334 -341 -341
-656 -733 l-318 -396 -120 -219 c-66 -121 -168 -316 -227 -434 -103 -205 -115
-237 -265 -685 -195 -581 -263 -849 -286 -1135 -69 -870 -76 -1066 -44 -1282
12 -82 20 -185 20 -268 0 -126 2 -143 39 -275 22 -77 47 -192 56 -255 48 -355
93 -534 187 -758 42 -99 64 -142 74 -138 17 7 1236 745 1248 756 4 5 -16 110
-47 237 -124 510 -137 619 -137 1133 0 417 15 593 79 906 30 145 54 230 103
364 36 96 82 227 103 290 20 63 69 200 107 305 70 188 72 192 261 495 294 471
436 658 706 933 164 168 353 331 576 498 418 313 446 330 845 509 l215 97 5
-267 5 -267 1165 688 c641 378 1164 690 1163 694 -1 5 -507 298 -1125 652
-617 354 -1142 656 -1165 669 l-43 25 0 -328z"/>
<path d="M7500 11511 c0 -705 1 -750 18 -755 394 -114 590 -194 902 -369 291
-163 463 -276 785 -518 258 -195 310 -239 375 -315 41 -49 152 -177 245 -284
165 -188 179 -207 376 -525 315 -506 363 -597 447 -855 124 -382 160 -517 237
-902 l75 -377 0 -348 c0 -302 -3 -363 -20 -463 -13 -76 -20 -161 -20 -250 0
-124 -3 -144 -36 -262 -20 -70 -41 -128 -46 -128 -5 0 -116 65 -245 145 -129
80 -239 145 -244 145 -5 0 -9 -554 -9 -1341 0 -778 4 -1339 9 -1337 27 10
2330 1334 2331 1340 0 3 -119 74 -264 158 l-264 150 39 98 c32 80 46 142 84
362 24 146 56 324 70 395 19 92 29 186 35 320 5 105 16 226 24 270 24 126 22
553 -4 760 -26 202 -84 611 -111 775 -19 123 -146 588 -215 792 -19 57 -53
165 -75 242 -35 121 -62 183 -215 488 -120 240 -203 392 -263 482 -48 72 -105
160 -126 196 -104 176 -208 319 -285 395 -45 44 -126 134 -180 200 -54 66
-135 156 -180 200 -45 44 -126 134 -180 200 -164 202 -338 357 -575 515 -60
40 -153 108 -205 150 -192 155 -318 229 -788 464 -404 202 -464 229 -588 265
-77 22 -179 54 -229 71 -49 17 -216 67 -370 111 -154 44 -288 82 -297 85 -17
5 -18 -35 -18 -745z"/>
<path d="M7050 10511 c-66 -12 -136 -35 -227 -74 -72 -31 -141 -57 -152 -57
-18 0 -21 -6 -21 -40 0 -23 9 -58 20 -80 11 -22 20 -56 20 -77 l0 -38 -435 3
-434 3 -158 -31 c-472 -94 -570 -119 -773 -200 -494 -197 -671 -293 -1005
-541 -329 -245 -467 -381 -861 -850 -101 -120 -225 -352 -408 -761 l-155 -346
-40 -204 c-30 -153 -49 -295 -77 -578 -41 -421 -42 -338 12 -900 34 -353 79
-560 169 -786 l64 -162 10 -218 c6 -121 11 -377 11 -569 l0 -351 63 -61 c82
-81 223 -151 467 -231 235 -78 293 -92 371 -92 35 0 96 -9 134 -20 39 -11 85
-20 103 -20 26 0 59 -20 155 -92 152 -115 388 -265 617 -390 156 -86 193 -102
345 -148 94 -28 258 -80 365 -115 l195 -64 265 -26 c146 -14 309 -30 363 -35
150 -15 209 -13 589 25 l353 36 215 64 c457 137 483 148 825 337 170 94 339
189 374 210 l63 38 162 0 c137 0 172 3 221 20 33 11 84 20 119 20 36 0 84 8
116 20 32 12 80 20 116 20 62 0 137 21 212 59 22 11 59 21 82 21 60 0 183 66
250 134 30 31 62 56 71 56 27 0 30 88 29 729 l-1 596 51 170 c28 94 80 258
115 365 l63 195 26 275 c54 567 52 471 11 890 -42 425 -42 428 -196 895 -113
346 -198 528 -350 756 -369 555 -567 771 -1004 1095 -187 140 -419 270 -710
398 -200 89 -224 102 -269 149 l-49 52 34 5 c19 3 53 20 77 39 38 31 42 39 42
78 0 24 -9 61 -20 83 -11 22 -20 46 -20 53 0 8 9 26 20 40 26 33 28 97 2 97
-10 0 -34 16 -53 36 -99 103 -318 140 -569 95z"/>
<path d="M1310 2790 c0 -1086 3 -1361 13 -1357 6 2 136 79 287 170 l275 166
115 -113 c63 -62 210 -192 325 -288 171 -142 238 -191 355 -258 80 -46 197
-118 260 -160 63 -42 234 -144 380 -227 215 -123 316 -172 535 -266 268 -114
374 -149 665 -222 80 -20 217 -56 305 -80 145 -40 202 -50 607 -100 l447 -55
353 0 c319 0 360 2 427 20 59 16 107 20 232 20 172 0 181 1 519 81 720 169
763 180 860 225 52 24 124 51 159 59 69 17 211 85 295 140 29 19 82 41 121 51
76 18 354 152 445 214 30 20 91 56 135 78 50 25 99 59 130 92 33 34 82 68 145
101 52 27 138 80 190 119 52 38 133 96 180 129 59 42 188 163 428 404 l344
344 -624 348 c-342 191 -635 355 -651 364 l-27 15 -78 -75 c-73 -72 -198 -175
-342 -284 -36 -27 -114 -88 -175 -135 -60 -48 -195 -137 -298 -199 -151 -91
-210 -120 -304 -152 -73 -24 -153 -60 -211 -95 -60 -36 -139 -71 -220 -99 -70
-23 -163 -57 -207 -75 -219 -89 -300 -110 -660 -171 l-350 -59 -445 0 c-491 0
-491 0 -875 80 -77 16 -208 40 -291 54 -279 48 -318 59 -607 175 -374 150
-531 231 -711 366 -45 34 -110 70 -170 95 -112 45 -233 130 -339 237 l-67 69
230 134 c126 74 227 137 222 141 -4 3 -515 298 -1137 654 -621 356 -1145 656
-1162 667 l-33 20 0 -1362z"/>
</g>
</svg>
